<?xml version="1.0" encoding="UTF-8"?>
<!--Generator: Apple Native CoreSVG 341-->
<!DOCTYPE svg
PUBLIC "-//W3C//DTD SVG 1.1//EN"
       "http://www.w3.org/Graphics/SVG/1.1/DTD/svg11.dtd">
<svg version="1.1" xmlns="http://www.w3.org/2000/svg" xmlns:xlink="http://www.w3.org/1999/xlink" viewBox="0 0 3300 2200">
 <!--glyph: "10176F", point size: 100.0, font version: "21.0d5e1", template writer version: "138.0.0"-->
 <style>.defaults {-sfsymbols-draw-reverses-motion-groups:true}

.monochrome-0 {-sfsymbols-motion-group:2;-sfsymbols-layer-tags:tree}
.monochrome-1 {-sfsymbols-motion-group:1;-sfsymbols-layer-tags:tree}
.monochrome-2 {-sfsymbols-motion-group:0;-sfsymbols-layer-tags:tree}

.multicolor-0:systemGreenColor {-sfsymbols-motion-group:2;-sfsymbols-layer-tags:tree}
.multicolor-1:systemBrownColor {-sfsymbols-motion-group:1;-sfsymbols-layer-tags:tree}
.multicolor-2:systemGreenColor {-sfsymbols-motion-group:0;-sfsymbols-layer-tags:tree}

.hierarchical-0:primary {-sfsymbols-motion-group:2;-sfsymbols-layer-tags:tree}
.hierarchical-1:primary {-sfsymbols-motion-group:1;-sfsymbols-layer-tags:tree}
.hierarchical-2:primary {-sfsymbols-motion-group:0;-sfsymbols-layer-tags:tree}

.SFSymbolsPreviewWireframe {fill:none;opacity:1.0;stroke:black;stroke-width:0.5}
</style>
 <g id="Notes">
  <rect height="2200" id="artboard" style="fill:white;opacity:1" width="3300" x="0" y="0"/>
  <line style="fill:none;stroke:black;opacity:1;stroke-width:0.5;" x1="263" x2="3036" y1="292" y2="292"/>
  <text style="stroke:none;fill:black;font-family:sans-serif;font-size:13;font-weight:bold;" transform="matrix(1 0 0 1 263 322)">Weight/Scale Variations</text>
  <text style="stroke:none;fill:black;font-family:sans-serif;font-size:13;text-anchor:middle;" transform="matrix(1 0 0 1 559.711 322)">Ultralight</text>
  <text style="stroke:none;fill:black;font-family:sans-serif;font-size:13;text-anchor:middle;" transform="matrix(1 0 0 1 856.422 322)">Thin</text>
  <text style="stroke:none;fill:black;font-family:sans-serif;font-size:13;text-anchor:middle;" transform="matrix(1 0 0 1 1153.13 322)">Light</text>
  <text style="stroke:none;fill:black;font-family:sans-serif;font-size:13;text-anchor:middle;" transform="matrix(1 0 0 1 1449.84 322)">Regular</text>
  <text style="stroke:none;fill:black;font-family:sans-serif;font-size:13;text-anchor:middle;" transform="matrix(1 0 0 1 1746.56 322)">Medium</text>
  <text style="stroke:none;fill:black;font-family:sans-serif;font-size:13;text-anchor:middle;" transform="matrix(1 0 0 1 2043.27 322)">Semibold</text>
  <text style="stroke:none;fill:black;font-family:sans-serif;font-size:13;text-anchor:middle;" transform="matrix(1 0 0 1 2339.98 322)">Bold</text>
  <text style="stroke:none;fill:black;font-family:sans-serif;font-size:13;text-anchor:middle;" transform="matrix(1 0 0 1 2636.69 322)">Heavy</text>
  <text style="stroke:none;fill:black;font-family:sans-serif;font-size:13;text-anchor:middle;" transform="matrix(1 0 0 1 2933.4 322)">Black</text>
  <line style="fill:none;stroke:black;opacity:1;stroke-width:0.5;" x1="263" x2="3036" y1="1903" y2="1903"/>
  <g transform="matrix(0.2 0 0 0.2 263 1933)">
   <path d="m46.2402 4.15039c21.7773 0 39.4531-17.627 39.4531-39.4043s-17.6758-39.4043-39.4531-39.4043c-21.7285 0-39.4043 17.627-39.4043 39.4043s17.6758 39.4043 39.4043 39.4043Zm0-7.42188c-17.6758 0-31.9336-14.3066-31.9336-31.9824s14.2578-31.9824 31.9336-31.9824 31.9824 14.3066 31.9824 31.9824-14.3066 31.9824-31.9824 31.9824Zm3.61328-17.7734v-28.4668c0-2.24609-1.46484-3.75977-3.71094-3.75977-2.14844 0-3.61328 1.51367-3.61328 3.75977v28.4668c0 2.19727 1.46484 3.71094 3.61328 3.71094 2.24609 0 3.71094-1.51367 3.71094-3.71094Zm-17.8223-10.5957h28.418c2.19727 0 3.71094-1.46484 3.71094-3.61328 0-2.19727-1.51367-3.71094-3.71094-3.71094h-28.418c-2.24609 0-3.75977 1.51367-3.75977 3.71094 0 2.14844 1.51367 3.61328 3.75977 3.61328Z"/>
  </g>
  <g transform="matrix(0.2 0 0 0.2 281.506 1933)">
   <path d="m58.5449 14.5508c27.4902 0 49.8047-22.3145 49.8047-49.8047s-22.3145-49.8047-49.8047-49.8047-49.8047 22.3145-49.8047 49.8047 22.3145 49.8047 49.8047 49.8047Zm0-8.30078c-22.9492 0-41.5039-18.5547-41.5039-41.5039s18.5547-41.5039 41.5039-41.5039 41.5039 18.5547 41.5039 41.5039-18.5547 41.5039-41.5039 41.5039Zm4.05273-23.0957v-36.9141c0-2.49023-1.70898-4.19922-4.15039-4.19922-2.39258 0-4.05273 1.70898-4.05273 4.19922v36.9141c0 2.44141 1.66016 4.15039 4.05273 4.15039 2.44141 0 4.15039-1.66016 4.15039-4.15039Zm-22.5586-14.4043h36.9629c2.44141 0 4.15039-1.61133 4.15039-4.00391 0-2.44141-1.70898-4.15039-4.15039-4.15039h-36.9629c-2.49023 0-4.15039 1.70898-4.15039 4.15039 0 2.39258 1.66016 4.00391 4.15039 4.00391Z"/>
  </g>
  <g transform="matrix(0.2 0 0 0.2 304.924 1933)">
   <path d="m74.8535 28.3203c35.1074 0 63.623-28.4668 63.623-63.5742s-28.5156-63.623-63.623-63.623-63.5742 28.5156-63.5742 63.623 28.4668 63.5742 63.5742 63.5742Zm0-9.08203c-30.127 0-54.4922-24.3652-54.4922-54.4922s24.3652-54.4922 54.4922-54.4922 54.4922 24.3652 54.4922 54.4922-24.3652 54.4922-54.4922 54.4922Zm4.44336-30.3223v-48.4863c0-2.73438-1.85547-4.63867-4.54102-4.63867-2.58789 0-4.44336 1.9043-4.44336 4.63867v48.4863c0 2.68555 1.85547 4.58984 4.44336 4.58984 2.68555 0 4.54102-1.85547 4.54102-4.58984Zm-28.7109-19.7754h48.4863c2.68555 0 4.58984-1.80664 4.58984-4.39453 0-2.73438-1.85547-4.58984-4.58984-4.58984h-48.4863c-2.73438 0-4.58984 1.85547-4.58984 4.58984 0 2.58789 1.85547 4.39453 4.58984 4.39453Z"/>
  </g>
  <text style="stroke:none;fill:black;font-family:sans-serif;font-size:13;font-weight:bold;" transform="matrix(1 0 0 1 263 1953)">Design Variations</text>
  <text style="stroke:none;fill:black;font-family:sans-serif;font-size:13;" transform="matrix(1 0 0 1 263 1971)">Symbols are supported in up to nine weights and three scales.</text>
  <text style="stroke:none;fill:black;font-family:sans-serif;font-size:13;" transform="matrix(1 0 0 1 263 1989)">For optimal layout with text and other symbols, vertically align</text>
  <text style="stroke:none;fill:black;font-family:sans-serif;font-size:13;" transform="matrix(1 0 0 1 263 2007)">symbols with the adjacent text.</text>
  <line style="fill:none;stroke:#00AEEF;stroke-width:0.5;opacity:1.0;" x1="776" x2="776" y1="1919" y2="1933"/>
  <g transform="matrix(0.2 0 0 0.2 776 1933)">
   <path d="m16.5527 0.78125c2.58789 0 3.85742-0.976562 4.78516-3.71094l20.5566-57.5195h0.244141l20.6055 57.5195c0.927734 2.73438 2.19727 3.71094 4.73633 3.71094 2.58789 0 4.24805-1.5625 4.24805-4.00391 0-0.830078-0.146484-1.61133-0.537109-2.63672l-22.9004-60.9863c-1.12305-2.97852-3.125-4.49219-6.25-4.49219-3.02734 0-5.07812 1.46484-6.15234 4.44336l-22.9004 61.084c-0.390625 1.02539-0.537109 1.80664-0.537109 2.63672 0 2.44141 1.5625 3.95508 4.10156 3.95508Zm10.2051-20.9473h30.6641c2.00195 0 3.66211-1.66016 3.66211-3.66211 0-2.05078-1.66016-3.66211-3.66211-3.66211h-30.6641c-2.00195 0-3.66211 1.61133-3.66211 3.66211 0 2.00195 1.66016 3.66211 3.66211 3.66211Z"/>
  </g>
  <line style="fill:none;stroke:#00AEEF;stroke-width:0.5;opacity:1.0;" x1="792.836" x2="792.836" y1="1919" y2="1933"/>
  <text style="stroke:none;fill:black;font-family:sans-serif;font-size:13;font-weight:bold;" transform="matrix(1 0 0 1 776 1953)">Margins</text>
  <text style="stroke:none;fill:black;font-family:sans-serif;font-size:13;" transform="matrix(1 0 0 1 776 1971)">Leading and trailing margins on the left and right side of each symbol</text>
  <text style="stroke:none;fill:black;font-family:sans-serif;font-size:13;" transform="matrix(1 0 0 1 776 1989)">can be adjusted by modifying the x-location of the margin guidelines.</text>
  <text style="stroke:none;fill:black;font-family:sans-serif;font-size:13;" transform="matrix(1 0 0 1 776 2007)">Modifications are automatically applied proportionally to all</text>
  <text style="stroke:none;fill:black;font-family:sans-serif;font-size:13;" transform="matrix(1 0 0 1 776 2025)">scales and weights.</text>
  <g transform="matrix(0.2 0 0 0.2 1289 1933)">
   <path d="m14.209 13.1348 7.86133 7.86133c4.29688 4.39453 9.32617 4.10156 13.8672-1.02539l60.6934-68.2129-4.88281-4.88281-60.2539 67.6758c-1.80664 1.95312-3.4668 2.44141-5.81055 0.0976562l-5.17578-5.12695c-2.29492-2.29492-1.80664-3.95508 0.195312-5.81055l67.4805-62.1582-4.88281-4.83398-68.0664 62.5977c-4.98047 4.58984-5.32227 9.47266-1.02539 13.8184Zm44.873-97.4609c-2.05078 2.00195-2.24609 4.88281-1.07422 6.78711 1.12305 1.80664 3.4668 3.02734 6.5918 2.24609 5.85938-1.66016 12.5977-2.39258 18.8965 0.927734l-2.68555 7.12891c-1.61133 4.00391-0.732422 6.88477 1.70898 9.42383l10.2539 10.3027c2.34375 2.39258 4.54102 2.44141 7.08008 1.95312l4.44336-0.732422 2.58789 2.53906-0.195312 2.24609c-0.0976562 2.29492 0.537109 4.29688 2.7832 6.49414l3.36914 3.32031c2.29492 2.29492 5.51758 2.49023 7.8125 0.195312l12.9883-13.0371c2.29492-2.34375 2.14844-5.37109-0.195312-7.66602l-3.41797-3.41797c-2.19727-2.19727-4.05273-3.02734-6.34766-2.88086l-2.34375 0.244141-2.44141-2.44141 1.02539-4.6875c0.634766-2.73438-0.244141-4.98047-2.88086-7.61719l-11.2793-11.1816c-12.9395-12.8418-35.5957-11.0352-46.6797-0.146484Zm7.08008 2.05078c8.78906-6.39648 25.9766-5.66406 33.6914 1.95312l12.3047 12.207c1.02539 1.02539 1.2207 1.80664 0.927734 3.32031l-1.46484 6.64062 6.73828 6.68945 4.39453-0.244141c1.12305-0.0488281 1.51367 0.0488281 2.34375 0.878906l2.53906 2.49023-10.8398 10.8398-2.49023-2.49023c-0.830078-0.878906-0.976562-1.2207-0.927734-2.39258l0.292969-4.3457-6.68945-6.73828-6.83594 1.17188c-1.41602 0.292969-2.05078 0.195312-3.17383-0.878906l-8.93555-8.88672c-1.07422-1.02539-1.17188-1.70898-0.488281-3.36914l4.58984-11.4746c-6.10352-6.34766-17.041-7.51953-25.5859-4.58984-0.683594 0.244141-0.927734-0.390625-0.390625-0.78125Z"/>
  </g>
  <text style="stroke:none;fill:black;font-family:sans-serif;font-size:13;font-weight:bold;" transform="matrix(1 0 0 1 1289 1953)">Exporting</text>
  <text style="stroke:none;fill:black;font-family:sans-serif;font-size:13;" transform="matrix(1 0 0 1 1289 1971)">Symbols should be outlined when exporting to ensure the</text>
  <text style="stroke:none;fill:black;font-family:sans-serif;font-size:13;" transform="matrix(1 0 0 1 1289 1989)">design is preserved when submitting to Xcode.</text>
  <text id="template-version" style="stroke:none;fill:black;font-family:sans-serif;font-size:13;text-anchor:end;" transform="matrix(1 0 0 1 3036 1933)">Template v.7.0</text>
  <text style="stroke:none;fill:black;font-family:sans-serif;font-size:13;text-anchor:end;" transform="matrix(1 0 0 1 3036 1951)">Requires Xcode 17 or greater</text>
  <text id="descriptive-name" style="stroke:none;fill:black;font-family:sans-serif;font-size:13;text-anchor:end;" transform="matrix(1 0 0 1 3036 1969)">Generated from tree</text>
  <text style="stroke:none;fill:black;font-family:sans-serif;font-size:13;text-anchor:end;" transform="matrix(1 0 0 1 3036 1987)">Typeset at 100.0 points</text>
  <text style="stroke:none;fill:black;font-family:sans-serif;font-size:13;" transform="matrix(1 0 0 1 263 726)">Small</text>
  <text style="stroke:none;fill:black;font-family:sans-serif;font-size:13;" transform="matrix(1 0 0 1 263 1156)">Medium</text>
  <text style="stroke:none;fill:black;font-family:sans-serif;font-size:13;" transform="matrix(1 0 0 1 263 1586)">Large</text>
 </g>
 <g id="Guides">
  <g id="H-reference" style="fill:#27AAE1;stroke:none;" transform="matrix(1 0 0 1 339 696)">
   <path d="M0.993654 0L3.63775 0L29.3281-67.1323L30.0303-67.1323L30.0303-70.459L28.1226-70.459ZM11.6885-24.4799L46.9815-24.4799L46.2315-26.7285L12.4385-26.7285ZM55.1196 0L57.7637 0L30.6382-70.459L29.4326-70.459L29.4326-67.1323Z"/>
  </g>
  <line id="Baseline-S" style="fill:none;stroke:#27AAE1;opacity:1;stroke-width:0.5;" x1="263" x2="3036" y1="696" y2="696"/>
  <line id="Capline-S" style="fill:none;stroke:#27AAE1;opacity:1;stroke-width:0.5;" x1="263" x2="3036" y1="625.541" y2="625.541"/>
  <g id="H-reference" style="fill:#27AAE1;stroke:none;" transform="matrix(1 0 0 1 339 1126)">
   <path d="M0.993654 0L3.63775 0L29.3281-67.1323L30.0303-67.1323L30.0303-70.459L28.1226-70.459ZM11.6885-24.4799L46.9815-24.4799L46.2315-26.7285L12.4385-26.7285ZM55.1196 0L57.7637 0L30.6382-70.459L29.4326-70.459L29.4326-67.1323Z"/>
  </g>
  <line id="Baseline-M" style="fill:none;stroke:#27AAE1;opacity:1;stroke-width:0.5;" x1="263" x2="3036" y1="1126" y2="1126"/>
  <line id="Capline-M" style="fill:none;stroke:#27AAE1;opacity:1;stroke-width:0.5;" x1="263" x2="3036" y1="1055.54" y2="1055.54"/>
  <g id="H-reference" style="fill:#27AAE1;stroke:none;" transform="matrix(1 0 0 1 339 1556)">
   <path d="M0.993654 0L3.63775 0L29.3281-67.1323L30.0303-67.1323L30.0303-70.459L28.1226-70.459ZM11.6885-24.4799L46.9815-24.4799L46.2315-26.7285L12.4385-26.7285ZM55.1196 0L57.7637 0L30.6382-70.459L29.4326-70.459L29.4326-67.1323Z"/>
  </g>
  <line id="Baseline-L" style="fill:none;stroke:#27AAE1;opacity:1;stroke-width:0.5;" x1="263" x2="3036" y1="1556" y2="1556"/>
  <line id="Capline-L" style="fill:none;stroke:#27AAE1;opacity:1;stroke-width:0.5;" x1="263" x2="3036" y1="1485.54" y2="1485.54"/>
  <line id="right-margin-Black-S" style="fill:none;stroke:#00AEEF;stroke-width:0.5;opacity:1.0;" x1="2994.73" x2="2994.73" y1="600.785" y2="720.121"/>
  <line id="left-margin-Black-S" style="fill:none;stroke:#00AEEF;stroke-width:0.5;opacity:1.0;" x1="2872.07" x2="2872.07" y1="600.785" y2="720.121"/>
  <line id="right-margin-Regular-S" style="fill:none;stroke:#00AEEF;stroke-width:0.5;opacity:1.0;" x1="1510.07" x2="1510.07" y1="600.785" y2="720.121"/>
  <line id="left-margin-Regular-S" style="fill:none;stroke:#00AEEF;stroke-width:0.5;opacity:1.0;" x1="1389.61" x2="1389.61" y1="600.785" y2="720.121"/>
  <line id="right-margin-Ultralight-S" style="fill:none;stroke:#00AEEF;stroke-width:0.5;opacity:1.0;" x1="614.628" x2="614.628" y1="600.785" y2="720.121"/>
  <line id="left-margin-Ultralight-S" style="fill:none;stroke:#00AEEF;stroke-width:0.5;opacity:1.0;" x1="504.795" x2="504.795" y1="600.785" y2="720.121"/>
 </g>
 <g id="Symbols">
  <g id="Black-S" transform="matrix(1 0 0 1 2872.07 696)">
   <path class="monochrome-0 multicolor-0:systemGreenColor hierarchical-0:primary SFSymbolsPreviewWireframe" d="M51.4648-4.93164C54.3457-4.93164 57.9102-5.46875 61.3281-6.64062C64.7461-5.46875 68.3105-4.93164 71.1914-4.93164C78.4668-4.93164 84.1309-7.8125 87.0605-9.86328C90.0391-8.59375 92.9688-8.00781 95.6055-8.00781C105.664-8.00781 112.891-15.4785 112.891-25.7812C112.891-30.2734 111.23-35.0586 107.617-39.4043C110.352-43.0176 111.523-47.2168 111.523-51.0742C111.523-60.4492 104.883-69.3359 95.8984-71.4844C94.0918-80.5176 83.8379-86.4746 74.4141-86.4746C69.6289-86.4746 64.9902-85.1074 61.3281-81.8848C57.666-85.1074 53.0273-86.4746 48.2422-86.4746C38.8184-86.4746 28.5645-80.5176 26.7578-71.4844C17.7734-69.3359 11.1328-60.4492 11.1328-51.0742C11.1328-47.2168 12.3047-43.0176 15.0391-39.4043C11.4258-35.0586 9.76562-30.2734 9.76562-25.7812C9.76562-15.4785 16.9922-8.00781 27.0508-8.00781C29.6875-8.00781 32.6172-8.59375 35.5957-9.86328C38.5254-7.8125 44.1895-4.93164 51.4648-4.93164ZM51.4648-15.918C45.459-15.918 41.1133-18.1641 37.0605-23.291C34.5703-20.8984 31.8848-19.9219 29.4434-19.9219C25.2441-19.9219 21.875-22.9004 21.875-26.9531C21.875-29.4922 23.2422-32.4707 26.5625-35.4492C29.0527-37.6465 28.6133-41.1621 26.7578-43.0176C24.0234-45.8984 22.9004-48.9258 22.9004-51.6602C22.9004-56.8848 27.0996-60.9863 32.8613-60.9863C36.2793-60.9863 37.1094-62.9395 37.1094-63.916C37.1094-71.6309 43.0176-75.293 49.4141-75.293C53.7109-75.293 58.252-73.6328 61.3281-70.459C64.4043-73.6328 68.9453-75.293 73.2422-75.293C79.6387-75.293 85.5469-71.6309 85.5469-63.916C85.5469-62.9395 86.377-60.9863 89.7949-60.9863C95.5566-60.9863 99.7559-56.8848 99.7559-51.6602C99.7559-48.9258 98.6328-45.8984 95.8984-43.0176C94.043-41.1621 93.6035-37.6465 96.0938-35.4492C99.4141-32.4707 100.781-29.4922 100.781-26.9531C100.781-22.9004 97.4121-19.9219 93.2129-19.9219C90.7715-19.9219 88.0859-20.8984 85.5957-23.291C81.543-18.1641 77.1973-15.918 71.1914-15.918C68.2129-15.918 65.918-16.4551 61.3281-18.457C56.7383-16.4551 54.4434-15.918 51.4648-15.918Z"/>
   <path class="monochrome-1 multicolor-1:systemBrownColor hierarchical-1:primary SFSymbolsPreviewWireframe" d="M61.3281 16.6992C65.4785 16.6992 68.2129 14.8926 68.2129 12.5977C68.2129 10.0098 67.5293 2.39258 67.5293-2.24609C67.5293-10.791 77.1973-28.1738 78.2715-29.9316L72.168-33.7402C70.459-30.5664 68.4082-27.1973 65.0391-19.9707L65.0391-32.0801L57.6172-32.0801L57.6172-19.9219C54.248-27.1484 52.1973-30.6152 50.4883-33.7402L44.4336-29.9316C45.459-28.1738 55.127-10.791 55.127-2.24609C55.127 2.39258 54.4434 10.0098 54.4434 12.5977C54.4434 14.8926 57.1777 16.6992 61.3281 16.6992Z"/>
   <path class="monochrome-2 multicolor-2:systemGreenColor hierarchical-2:primary SFSymbolsPreviewWireframe" d="M40.4785-24.5117C47.6562-24.5117 52.0996-27.7832 54.0527-32.4219C56.1035-31.2012 58.5938-30.5664 61.3281-30.5664C64.0625-30.5664 66.5527-31.2012 68.6035-32.4219C70.5566-27.7832 75-24.5117 82.1777-24.5117C83.8379-24.5117 85.2051-25.8301 85.2051-27.5391C85.2051-29.1992 83.8379-30.5664 82.1777-30.5664C75.9277-30.6641 72.998-34.0332 72.998-39.7461C72.998-42.1387 69.6777-43.0176 68.457-41.0156C66.748-38.3789 64.502-37.1094 61.3281-37.1094C58.1543-37.1094 55.9082-38.3789 54.1992-41.0156C52.9785-43.0176 49.6582-42.1387 49.6582-39.7461C49.6582-34.0332 46.7285-30.6641 40.4785-30.5664C38.8184-30.5664 37.4512-29.1992 37.4512-27.5391C37.4512-25.8301 38.8184-24.5117 40.4785-24.5117Z"/>
  </g>
  <g id="Regular-S" transform="matrix(1 0 0 1 1389.61 696)">
   <path class="monochrome-0 multicolor-0:systemGreenColor hierarchical-0:primary SFSymbolsPreviewWireframe" d="M50.8789-5.51758C53.7109-5.51758 56.9336-5.95703 60.2539-7.12891C63.5254-5.95703 66.748-5.51758 69.6289-5.51758C77.6855-5.51758 83.6914-9.17969 85.9375-11.084C89.209-9.47266 92.2852-8.74023 95.166-8.74023C104.297-8.74023 110.693-15.332 110.693-24.7559C110.693-29.4922 108.74-34.5215 104.346-39.0137C107.861-42.6758 109.277-47.1191 109.277-51.3184C109.277-60.5957 102.197-69.3359 93.2129-70.459C92.6758-79.4434 82.5195-85.791 72.998-85.791C68.1641-85.791 63.623-84.375 60.2539-80.957C56.8359-84.375 52.3438-85.791 47.4609-85.791C37.9395-85.791 27.7832-79.4434 27.2949-70.459C18.2617-69.3359 11.1816-60.5957 11.1816-51.3184C11.1816-47.1191 12.6465-42.6758 16.1133-39.0137C11.7188-34.5215 9.76562-29.4922 9.76562-24.7559C9.76562-15.332 16.2109-8.74023 25.293-8.74023C28.1738-8.74023 31.2988-9.47266 34.5703-11.084C36.7676-9.17969 42.7734-5.51758 50.8789-5.51758ZM50.8789-11.7676C41.8945-11.7676 37.4512-16.748 35.5957-18.75C31.4453-15.8203 29.1992-15.0391 25.293-15.0391C19.8242-15.0391 16.0645-18.9453 16.0645-24.7559C16.0645-28.8086 17.4316-31.7871 22.9492-36.8164C24.2676-37.9883 24.1211-39.9414 23.0469-41.0156C18.3594-45.6055 17.4316-48.4863 17.4316-52.1973C17.4316-59.4727 22.998-64.9902 31.9824-64.3066C33.3984-64.209 33.8379-65.1855 33.6914-66.1133C32.5195-73.4863 38.5742-79.541 47.9004-79.541C53.3203-79.541 56.7871-77.4902 60.2539-74.1699C63.6719-77.4902 67.2363-79.541 72.5586-79.541C81.8848-79.541 87.9395-73.4863 86.7676-66.1133C86.6211-65.1855 87.0605-64.209 88.5254-64.3066C97.4609-64.9902 103.027-59.4727 103.027-52.1973C103.027-48.4863 102.1-45.6055 97.4121-41.0156C96.3867-39.9414 96.1914-37.9883 97.5098-36.8164C103.027-31.7871 104.395-28.8086 104.395-24.7559C104.395-18.9453 100.684-15.0391 95.166-15.0391C91.2598-15.0391 89.0137-15.8203 84.8633-18.75C83.0078-16.748 78.5645-11.7676 69.6289-11.7676C66.6504-11.7676 64.0625-12.2559 60.2539-13.8184C56.3965-12.2559 53.8086-11.7676 50.8789-11.7676Z"/>
   <path class="monochrome-1 multicolor-1:systemBrownColor hierarchical-1:primary SFSymbolsPreviewWireframe" d="M60.2539 16.1133C64.209 16.1133 66.748 14.8438 66.748 12.793C66.748 10.2539 66.0645 2.44141 66.0645-2.34375C66.0645-10.9375 75.5371-28.0273 76.6113-29.7363L71.0938-33.3008C69.2871-29.9316 67.0898-26.3184 63.623-18.75L63.623-31.7871L56.8359-31.7871L56.8359-18.7012C53.418-26.2695 51.2207-29.9805 49.4141-33.3008L43.9453-29.7363C44.9219-28.0273 54.3945-10.9375 54.3945-2.34375C54.3945 2.44141 53.7109 10.2539 53.7109 12.793C53.7109 14.8438 56.2988 16.1133 60.2539 16.1133Z"/>
   <path class="monochrome-2 multicolor-2:systemGreenColor hierarchical-2:primary SFSymbolsPreviewWireframe" d="M39.502-24.7559C46.7285-24.7559 50.9766-28.0762 52.832-32.7637C54.9316-31.4941 57.373-30.7617 60.2539-30.7617C63.0859-30.7617 65.5762-31.4941 67.627-32.7637C69.4824-28.0762 73.7793-24.7559 80.957-24.7559C82.4219-24.7559 83.6426-25.9277 83.6426-27.4414C83.6426-28.9062 82.4219-30.127 80.957-30.127C74.6094-30.2246 71.582-33.7402 71.5332-39.4531C71.5332-41.5527 68.6523-42.334 67.5293-40.5762C65.8203-37.9395 63.4766-36.6211 60.2539-36.6211C56.9824-36.6211 54.6387-37.9395 52.9297-40.5762C51.8066-42.334 48.9258-41.5527 48.9258-39.4531C48.877-33.7402 45.8496-30.2246 39.502-30.127C38.0371-30.127 36.8164-28.9062 36.8164-27.4414C36.8164-25.9277 38.0371-24.7559 39.502-24.7559Z"/>
  </g>
  <g id="Ultralight-S" transform="matrix(1 0 0 1 504.795 696)">
   <path class="monochrome-0 multicolor-0:systemGreenColor hierarchical-0:primary SFSymbolsPreviewWireframe" d="M46.3833-9.01413C48.9883-9.01413 51.8931-9.40818 54.8956-10.5801C57.94-9.40818 60.8448-9.01413 63.4532-9.01413C70.9195-9.01413 76.2896-12.4038 78.1724-14.3081C81.3077-12.6513 84.1114-11.9189 86.7652-11.9189C94.8062-11.9189 100.067-17.2847 100.067-25.6186C100.067-30.0371 98.2506-34.4761 93.9014-38.6504C97.4171-42.04 98.7423-45.8477 98.7423-50.3193C98.7423-58.7793 91.9801-65.8848 84.0855-66.4629C84.1841-74.7662 75.8443-80.8868 66.9585-80.8868C62.3516-80.8868 57.9922-79.0621 54.8956-75.5533C51.8409-79.0621 47.4849-80.8868 42.8745-80.8868C33.9888-80.8868 25.6489-74.7662 25.751-66.4629C17.853-65.8848 11.0908-58.7793 11.0908-50.3193C11.0908-45.8477 12.4194-42.04 15.9316-38.6504C11.5825-34.4761 9.76562-30.0371 9.76562-25.6186C9.76562-17.2847 14.9849-11.9189 23.0679-11.9189C25.7217-11.9189 28.5288-12.6513 31.6641-14.3081C33.4981-12.4038 38.9136-9.01413 46.3833-9.01413ZM46.3833-11.1773C37.7622-11.1773 33.3189-15.522 32.0991-17.2061C28.7661-14.9575 25.9297-14.0855 23.0679-14.0855C16.0552-14.0855 11.9322-18.355 11.9322-25.6186C11.9322-29.7622 13.6172-33.6943 18.1812-37.7246C18.6822-38.2153 18.6719-39.0332 18.188-39.4717C14.4995-42.7901 13.2539-46.125 13.2539-50.3355C13.2539-58.2466 19.5469-64.4453 27.0782-64.3521C27.7222-64.3452 28.0254-64.8677 27.9698-65.4321C26.9795-72.9868 34.3511-78.7236 42.9053-78.7236C47.9165-78.7236 51.9283-76.7183 54.8956-72.1265C57.9048-76.7183 61.878-78.7236 66.9278-78.7236C75.482-78.7236 82.8536-72.9868 81.8633-65.4321C81.8077-64.8677 82.1109-64.3452 82.7583-64.3521C90.2862-64.4453 96.5792-58.2466 96.5792-50.3355C96.5792-46.125 95.3335-42.7901 91.6451-39.4717C91.1192-39.0332 91.1509-38.2153 91.6519-37.7246C96.2159-33.6943 97.9009-29.7622 97.9009-25.6186C97.9009-18.355 93.7813-14.0855 86.7652-14.0855C83.858-14.0855 81.067-14.9575 77.7339-17.2061C76.5142-15.522 72.0709-11.1773 63.4532-11.1773C60.7471-11.1773 58.023-11.5747 54.8956-12.9102C51.8101-11.5747 49.086-11.1773 46.3833-11.1773Z"/>
   <path class="monochrome-1 multicolor-1:systemBrownColor hierarchical-1:primary SFSymbolsPreviewWireframe" d="M54.8956 9.84673C57.2613 9.84673 59.0738 9.07671 59.0738 8.16117C59.0738 6.34866 58.4356 3.71288 58.4356-4.34178C58.4356-12.436 64.1847-24.1221 67.0299-28.0562L64.0098-31.3028C61.4766-26.753 58.462-20.8692 56.9478-16.9336L56.9478-30.9243L52.8853-30.9243L52.8853-16.9302C51.3745-20.8658 48.3599-26.7564 45.8267-31.3028L42.7647-28.0562C45.6484-24.1221 51.3975-12.436 51.3975-4.34178C51.3975 3.71288 50.7593 6.34866 50.7593 8.16117C50.7593 9.07671 52.5752 9.84673 54.8956 9.84673Z"/>
   <path class="monochrome-2 multicolor-2:systemGreenColor hierarchical-2:primary SFSymbolsPreviewWireframe" d="M36.0054-24.7559C43.0503-24.7559 46.0723-28.0308 47.3374-33.0815C49.5279-31.2217 51.6968-30.2622 54.8956-30.2622C58.1363-30.2622 60.2632-31.2217 62.4956-33.0815C63.7608-28.0308 66.7862-24.7559 73.8277-24.7559C74.3843-24.7559 74.8785-25.2466 74.8785-25.8067C74.8785-26.4087 74.3843-26.8574 73.8277-26.8574C66.9805-26.9551 65.2247-30.7886 64.4039-34.5943C64.1314-35.7403 62.6583-36.3853 61.5352-35.3086C60.1441-34.0342 58.2998-32.398 54.8956-32.398C51.5332-32.398 49.689-34.0342 48.2979-35.3086C47.1748-36.3853 45.6563-35.7403 45.4292-34.5943C44.6084-30.7886 42.8526-26.9551 36.0054-26.8574C35.4488-26.8574 34.9546-26.4087 34.9546-25.8067C34.9546-25.2466 35.4488-24.7559 36.0054-24.7559Z"/>
  </g>
 </g>
</svg>
